<svg width="256" height="256" viewBox="0 0 256 256" fill="none" xmlns="http://www.w3.org/2000/svg">
<g clip-path="url(#clip0_45_20)">
<path d="M211 0H45C20.1472 0 0 20.1472 0 45V211C0 235.853 20.1472 256 45 256H211C235.853 256 256 235.853 256 211V45C256 20.1472 235.853 0 211 0Z" fill="white"/>
<path fill-rule="evenodd" clip-rule="evenodd" d="M80.9023 213.402H138.932C145.297 213.402 151.401 210.874 155.902 206.373L193.873 168.402C198.374 163.901 200.902 157.797 200.902 151.432V75.4023C200.902 62.1474 190.157 51.4023 176.902 51.4023H80.9023C67.6474 51.4023 56.9023 62.1474 56.9023 75.4023V189.402C56.9023 202.657 67.6474 213.402 80.9023 213.402Z" fill="#111111"/>
<path d="M86.4001 178L120.192 84.28H137.748L171.54 178H156.756L148.176 153.316H109.764L101.184 178H86.4001ZM114.252 140.512H143.688L129.036 97.48L114.252 140.512Z" fill="white"/>
<path d="M201.231 151.194L163.169 151.086C149.893 151.049 139.161 161.886 139.199 175.293L139.306 213.728H139.336C145.712 213.746 151.819 211.206 156.314 206.666L194.239 168.369C198.734 163.83 201.249 157.662 201.231 151.224V151.194Z" fill="#AAAAAA"/>
</g>
<defs>
<clipPath id="clip0_45_20">
<rect width="256" height="256" fill="white"/>
</clipPath>
</defs>
</svg>
