<svg width="200" height="214" viewBox="0 0 200 214" fill="none" xmlns="http://www.w3.org/2000/svg">
<rect y="14" width="200" height="200" rx="22" fill="#E8E8E8"/>
<path d="M87.5977 127.02H112.402C113.9 127.02 114.453 126.271 114.062 124.773L100.977 69.0117C100.716 68.2305 100.456 67.8398 100.195 67.8398H99.8047C99.5443 67.8398 99.2839 68.2305 99.0234 69.0117L86.0352 124.773C85.6445 126.271 86.1654 127.02 87.5977 127.02ZM66.9922 182H56.0547C54.5573 182 53.4505 181.609 52.7344 180.828C52.0182 180.047 51.7904 179.103 52.0508 177.996L89.2578 44.9883C89.6484 42.9701 90.918 41.9609 93.0664 41.9609H107.031C109.18 41.9609 110.449 42.9701 110.84 44.9883L148.047 177.996C148.307 179.103 148.079 180.047 147.363 180.828C146.647 181.609 145.54 182 144.043 182H133.008C131.12 182 129.85 180.991 129.199 178.973L120.41 148.406C120.02 146.518 118.75 145.574 116.602 145.574H83.3984C81.5104 145.574 80.2409 146.518 79.5898 148.406L70.8008 178.973C70.1497 180.991 68.8802 182 66.9922 182Z" fill="black"/>
<path d="M157.983 39.36L156.703 51.648L168.991 48.192L169.887 54.08L158.111 55.04L165.727 65.152L160.223 68.16L154.783 56.96L149.855 68.16L144.159 65.152L151.647 55.04L139.999 54.08L140.895 48.192L153.055 51.648L151.711 39.36H157.983Z" fill="black"/>
</svg>
